# Blender 5.0.0
# www.blender.org
mtllib KatanaSizeAdjust.mtl
o Katana_LP_Final
v -0.793511 -0.001596 0.012993
v -0.623109 -0.001610 0.018256
v -0.623109 0.002629 0.001530
v -0.793511 0.003118 -0.003809
v -0.452708 -0.001630 0.022196
v -0.452708 0.002299 0.003875
v -0.282306 -0.001667 0.025088
v -0.282306 0.001972 0.003875
v -0.111905 -0.001667 0.025628
v -0.111905 0.001972 0.003875
v 0.058497 -0.001651 0.025861
v 0.058497 0.001976 0.003115
v 0.185049 -0.001218 0.025707
v 0.185049 0.002767 0.003875
v 0.292362 0.006244 0.021800
v 0.414241 0.007017 0.017415
v 0.414241 0.009992 0.003113
v 0.292362 0.009992 0.003113
v 0.536556 0.005839 0.008308
v 0.536120 0.010605 -0.004572
v -0.623109 0.002954 -0.022116
v -0.793511 0.003538 -0.026591
v -0.452708 0.002561 -0.018438
v -0.282306 0.002170 -0.015546
v -0.111905 0.002170 -0.014481
v 0.058497 0.002205 -0.013841
v 0.185049 0.003119 -0.017123
v 0.414241 0.007805 -0.018326
v 0.292362 0.007967 -0.013124
v 0.531468 0.007245 -0.028797
v -0.793511 -0.002513 0.012993
v -0.793511 -0.003322 -0.004859
v -0.623109 -0.003816 -0.000136
v -0.623109 -0.002611 0.018256
v -0.452708 -0.004313 0.003875
v -0.452708 -0.002782 0.022196
v -0.282306 -0.004486 0.003875
v -0.282306 -0.002786 0.025088
v -0.111905 -0.004488 0.003875
v -0.111905 -0.002642 0.025628
v 0.058497 -0.004223 0.003875
v 0.058497 -0.002701 0.025861
v 0.185049 -0.004777 0.003875
v 0.185049 -0.003637 0.025707
v 0.292362 -0.009194 0.024734
v 0.292362 -0.013302 0.003113
v 0.414241 -0.012408 0.003113
v 0.414241 -0.008685 0.020424
v 0.536120 -0.007851 -0.000527
v 0.536556 -0.006459 0.006951
v -0.793511 0.000122 -0.026591
v -0.623109 -0.000467 -0.022116
v -0.452708 -0.001061 -0.018438
v -0.282306 -0.001267 -0.015546
v -0.111905 -0.001270 -0.014481
v 0.058497 -0.000954 -0.013841
v 0.185049 -0.001615 -0.017123
v 0.292362 -0.008203 -0.018770
v 0.414241 -0.006532 -0.023928
v 0.531468 -0.006310 -0.021131
v 0.292362 -0.002006 0.024734
v 0.414241 -0.002006 0.020424
v 0.536555 -0.002006 0.012575
v 0.536120 -0.002006 0.003113
v 0.531468 -0.002006 -0.028560
v 0.414241 -0.002006 -0.023928
v 0.292362 -0.002006 -0.018770
v 0.186192 0.011892 -0.040360
v 0.186192 0.002787 -0.044774
v 0.186192 -0.006771 -0.044525
v 0.186192 -0.014642 -0.040276
v 0.186192 0.018718 0.036367
v 0.186192 0.022334 0.013648
v 0.186192 0.022224 -0.005818
v 0.186192 0.018352 -0.028344
v 0.186192 -0.026004 0.013378
v 0.186192 -0.021623 0.035306
v 0.186192 -0.021342 -0.028233
v 0.186192 -0.025967 -0.005596
v 0.186192 0.002739 0.054400
v 0.186192 0.012417 0.048858
v 0.186192 -0.015054 0.048053
v 0.186192 -0.006676 0.053874
v -0.962744 0.001221 -0.012778
v -0.962744 -0.001328 -0.011524
v -0.924335 -0.002409 0.008666
v -0.924335 -0.001596 0.008666
v -0.981211 0.003538 -0.035046
v -0.981211 0.000122 -0.035046
v 0.198792 0.009992 0.003113
v 0.198792 0.007035 0.021959
v 0.198792 0.007691 -0.014573
v 0.198792 -0.002006 -0.018770
v 0.198792 -0.009425 -0.013951
v 0.198792 -0.013302 0.003113
v 0.198792 -0.010744 0.021618
v 0.198792 -0.002006 0.024734
v 0.198071 0.021550 0.013797
v 0.198071 0.018293 0.035303
v 0.198071 0.018107 -0.027749
v 0.198071 0.021515 -0.005818
v 0.198071 0.002578 -0.043959
v 0.198071 0.011779 -0.039746
v 0.198071 -0.014697 -0.039067
v 0.198071 -0.006976 -0.043459
v 0.198071 -0.025528 -0.005543
v 0.198071 -0.021324 -0.026846
v 0.198071 -0.021218 0.034310
v 0.198071 -0.025474 0.013451
v 0.198071 -0.006858 0.053148
v 0.198071 -0.014656 0.047271
v 0.198071 0.012078 0.047982
v 0.198071 0.002498 0.053777
vn -0.0145 0.9643 0.2644
vn -0.0046 0.9697 0.2444
vn -0.0012 0.9913 0.1316
vn -0.0077 0.9890 0.1479
vn -0.0016 0.9781 0.2081
vn 0.0003 0.9937 0.1123
vn -0.0013 0.9856 0.1689
vn -0.0001 0.9959 0.0906
vn 0.0001 0.9864 0.1647
vn -0.0000 0.9961 0.0884
vn -0.0017 0.9875 0.1575
vn -0.0025 0.9963 0.0862
vn -0.0068 0.9842 0.1770
vn -0.0070 0.9951 0.0986
vn 0.0113 0.7530 0.6579
vn 0.0301 0.7447 0.6667
vn 0.0010 0.9986 0.0535
vn -0.0011 0.9993 0.0374
vn 0.0555 0.7602 0.6473
vn 0.0107 0.9938 0.1110
vn 0.0022 0.9999 0.0140
vn 0.0010 0.9998 0.0184
vn 0.0019 0.9999 0.0118
vn 0.0009 0.9999 0.0103
vn -0.0001 0.9999 0.0108
vn -0.0032 0.9999 0.0135
vn -0.0068 0.9998 0.0168
vn -0.0322 0.8409 -0.5402
vn -0.0112 0.8339 -0.5517
vn -0.0355 0.6802 -0.7322
vn -0.0032 -0.9989 0.0459
vn -0.0029 -0.9984 -0.0572
vn -0.0015 -0.9991 -0.0429
vn -0.0035 -0.9978 0.0660
vn -0.0006 -0.9995 -0.0305
vn -0.0020 -0.9965 0.0832
vn -0.0004 -0.9991 -0.0422
vn -0.0007 -0.9968 0.0801
vn 0.0011 -0.9990 -0.0447
vn 0.0010 -0.9965 0.0839
vn -0.0025 -0.9984 -0.0568
vn -0.0039 -0.9976 0.0691
vn -0.0065 -0.9987 -0.0501
vn -0.0047 -0.9985 0.0540
vn 0.0166 -0.6330 0.7740
vn 0.0052 -0.9998 -0.0216
vn 0.0183 -0.9998 0.0038
vn 0.0636 -0.6226 0.7800
vn 0.0370 -0.9975 0.0610
vn 0.0416 -0.9083 0.4161
vn -0.0021 -0.9883 -0.1526
vn 0.0005 -0.9886 -0.1508
vn 0.0008 -0.9895 -0.1445
vn 0.0001 -0.9867 -0.1627
vn 0.0013 -0.9850 -0.1723
vn -0.0016 -0.9838 -0.1795
vn -0.0090 -0.9888 -0.1489
vn -0.0287 -0.6211 -0.7832
vn -0.0216 -0.6273 -0.7785
vn 0.0236 -0.9565 -0.2909
vn 0.0184 0.1690 0.9854
vn 0.0600 0.1529 0.9864
vn 0.0710 -0.2094 0.9753
vn -0.0320 -0.0000 0.9995
vn -0.0270 -0.0000 0.9996
vn -0.0200 -0.0000 0.9998
vn -0.0101 -0.0000 0.9999
vn -0.0023 -0.0000 1.0000
vn -0.0001 -0.0000 1.0000
vn 0.0012 -0.0000 1.0000
vn 0.9987 -0.0259 -0.0447
vn 0.9989 0.0069 -0.0460
vn 0.9959 0.0038 -0.0909
vn 0.9902 -0.0619 -0.1249
vn 0.9823 -0.0844 -0.1672
vn 0.9822 -0.0048 -0.1879
vn 0.9972 0.0513 -0.0537
vn 0.9802 0.1047 -0.1681
vn 0.9664 -0.2099 -0.1482
vn -0.0157 -0.4959 -0.8683
vn -0.0498 0.2498 -0.9670
vn -0.0331 0.2477 -0.9683
vn -0.9990 0.0377 -0.0231
vn -0.9988 0.0315 -0.0372
vn -0.9991 0.0077 -0.0414
vn -0.9992 -0.0101 -0.0397
vn -0.9990 -0.0298 -0.0326
vn -0.9993 -0.0294 -0.0251
vn -0.0111 -0.0000 -0.9999
vn 0.0050 -0.0000 -1.0000
vn 0.0116 -0.0000 -0.9999
vn 0.0193 -0.0000 -0.9998
vn 0.0239 -0.0000 -0.9997
vn 0.0356 -0.0000 -0.9994
vn -0.9987 0.0486 0.0168
vn -0.9984 0.0557 0.0053
vn -0.9984 0.0566 0.0038
vn -0.9993 0.0268 0.0272
vn -0.9981 0.0610 -0.0031
vn -0.9980 0.0587 -0.0220
vn -0.9985 -0.0545 0.0042
vn -0.9984 -0.0532 0.0193
vn -0.9991 -0.0302 0.0288
vn -0.9986 -0.0524 -0.0026
vn -0.9987 -0.0472 -0.0177
vn -0.9987 -0.0511 -0.0062
vn -0.9992 0.0086 0.0386
vn -0.9990 0.0305 0.0314
vn -0.9989 -0.0330 0.0326
vn -0.9992 -0.0123 0.0382
vn -0.0259 -0.0000 -0.9997
vn -0.6297 0.3318 0.7024
vn -0.5562 0.3670 0.7456
vn -0.2652 0.0083 0.9641
vn -0.2725 -0.0000 0.9622
vn -0.0160 0.9919 0.1261
vn -0.0046 0.9904 0.1383
vn -0.0150 0.9945 0.1036
vn 0.0450 -0.0000 -0.9990
vn 0.0003 -0.9980 -0.0633
vn 0.0029 -0.9980 -0.0638
vn -0.0100 -0.9995 -0.0297
vn 0.0038 0.9999 0.0158
vn 0.0052 0.7573 0.6530
vn 0.0075 0.7960 -0.6052
vn 0.0068 -0.0796 -0.9968
vn -0.0004 -0.8205 -0.5717
vn 0.0006 -0.9991 -0.0434
vn -0.0139 -0.7809 0.6245
vn -0.0129 -0.0142 0.9998
vn 0.9992 0.0367 0.0158
vn 0.9983 0.0585 -0.0001
vn 0.9984 0.0565 0.0061
vn 0.9989 0.0446 0.0163
vn 0.9990 0.0421 -0.0154
vn 0.9988 0.0462 -0.0179
vn 0.9983 0.0578 -0.0060
vn 0.9997 -0.0027 -0.0262
vn 0.9996 0.0052 -0.0278
vn 0.9995 0.0198 -0.0254
vn 0.9991 -0.0382 -0.0164
vn 0.9995 -0.0214 -0.0246
vn 0.9996 -0.0078 -0.0276
vn 0.9985 -0.0547 -0.0011
vn 0.9986 -0.0531 -0.0072
vn 0.9990 -0.0420 -0.0171
vn 0.9990 -0.0411 0.0151
vn 0.9988 -0.0463 0.0177
vn 0.9986 -0.0530 0.0073
vn 0.9997 0.0001 0.0247
vn 0.9997 -0.0079 0.0250
vn 0.9994 -0.0244 0.0244
vn 0.9996 0.0197 0.0224
vn 0.9997 0.0055 0.0240
vn 0.0614 0.9952 0.0763
vn 0.0647 0.9951 0.0749
vn 0.0605 0.9494 0.3083
vn 0.0602 0.9548 0.2909
vn 0.0680 0.7342 0.6756
vn 0.0714 0.7195 0.6908
vn 0.0644 0.2341 0.9701
vn 0.0557 0.2344 0.9705
vn 0.0591 -0.3438 0.9372
vn 0.0530 -0.3195 0.9461
vn 0.0609 -0.7547 0.6532
vn 0.0677 -0.7678 0.6371
vn 0.0562 -0.9447 0.3232
vn 0.0601 -0.9402 0.3352
vn 0.0435 -0.9941 0.0996
vn 0.0437 -0.9938 0.1025
vn 0.0422 -0.9426 -0.3312
vn 0.0385 -0.9945 -0.0973
vn 0.0352 -0.9944 -0.0993
vn 0.0397 -0.9345 -0.3538
vn 0.0861 -0.2813 -0.9558
vn 0.0701 -0.7197 -0.6908
vn 0.0643 -0.6951 -0.7160
vn 0.0757 -0.2567 -0.9635
vn 0.0491 0.6940 -0.7183
vn 0.0767 0.1919 -0.9784
vn 0.0653 0.2063 -0.9763
vn 0.0461 0.6889 -0.7234
vn 0.0382 0.9475 -0.3175
vn 0.0359 0.9435 -0.3294
vn 0.0558 0.9952 -0.0807
vn 0.0594 0.9952 -0.0780
vn -0.7697 -0.0000 0.6384
vn -0.7700 0.0165 0.6378
vt 0.195000 0.201200
vt 0.318500 0.318500
vt 0.299600 0.337000
vt 0.175600 0.220200
vt 0.441100 0.436500
vt 0.421200 0.456200
vt 0.563300 0.554800
vt 0.541100 0.577000
vt 0.684400 0.674500
vt 0.661600 0.697300
vt 0.805000 0.794800
vt 0.781200 0.818500
vt 0.938700 0.930700
vt 0.915600 0.953700
vt 0.798700 0.358500
vt 0.638600 0.223800
vt 0.657400 0.198300
vt 0.824200 0.325100
vt 0.471200 0.095500
vt 0.491300 0.068500
vt 0.276000 0.360100
vt 0.152600 0.242200
vt 0.399000 0.478100
vt 0.521900 0.596200
vt 0.643400 0.715400
vt 0.764400 0.835200
vt 0.894700 0.974400
vt 0.684800 0.161100
vt 0.845900 0.297100
vt 0.528900 0.029000
vt 0.197000 0.199400
vt 0.213500 0.180600
vt 0.337900 0.297200
vt 0.320600 0.316500
vt 0.461100 0.415100
vt 0.443500 0.434200
vt 0.586100 0.530800
vt 0.565500 0.552600
vt 0.708000 0.650200
vt 0.686400 0.672400
vt 0.829000 0.770300
vt 0.807200 0.792500
vt 0.965100 0.903800
vt 0.943600 0.925600
vt 0.763700 0.400900
vt 0.731100 0.436200
vt 0.578100 0.294200
vt 0.604200 0.266500
vt 0.424800 0.150500
vt 0.437400 0.136400
vt 0.234400 0.156400
vt 0.359100 0.273000
vt 0.482900 0.390800
vt 0.605700 0.509800
vt 0.727000 0.630500
vt 0.847600 0.751200
vt 0.986600 0.881800
vt 0.696700 0.472500
vt 0.535800 0.337700
vt 0.398400 0.189200
vt 0.780000 0.381700
vt 0.618400 0.248700
vt 0.452100 0.120000
vt 0.378100 0.166100
vt 0.329100 0.181900
vt 0.329000 0.146700
vt 0.408000 0.118300
vt 0.329100 0.028100
vt 0.386900 0.027200
vt 0.301200 0.161100
vt 0.292400 0.133400
vt 0.301900 0.055500
vt 0.359500 0.230300
vt 0.382800 0.206000
vt 0.525300 0.349400
vt 0.500700 0.377200
vt 0.681900 0.489000
vt 0.657100 0.517600
vt 0.174800 0.577900
vt 0.181000 0.497700
vt 0.227200 0.524100
vt 0.266600 0.561500
vt 0.291500 0.600300
vt 0.194500 0.596200
vt 0.701400 0.824000
vt 0.696400 0.829500
vt 0.598700 0.732400
vt 0.604600 0.726800
vt 0.508700 0.628300
vt 0.514700 0.622700
vt 0.414900 0.528100
vt 0.420700 0.521800
vt 0.309500 0.440600
vt 0.314300 0.434100
vt 0.197200 0.361800
vt 0.201500 0.355000
vt 0.011000 0.624200
vt 0.037900 0.565000
vt 0.137500 0.621100
vt 0.113900 0.679900
vt 0.074200 0.526600
vt 0.131900 0.496700
vt 0.239900 0.751100
vt 0.181200 0.777900
vt 0.123900 0.689200
vt 0.169000 0.650200
vt 0.297300 0.650200
vt 0.274800 0.713200
vt 0.044400 0.721800
vt 0.014300 0.673400
vt 0.130300 0.777900
vt 0.084600 0.757100
vt 0.823200 0.917300
vt 0.816300 0.926000
vt 0.091400 0.236600
vt 0.104000 0.229900
vt 0.160300 0.298900
vt 0.156700 0.301500
vt 0.051300 0.104800
vt 0.100400 0.110900
vt 0.015400 0.113400
vt 0.067200 0.284200
vt 0.071300 0.277300
vt 0.091800 0.062700
vt 0.099400 0.025600
vt 0.102200 0.109200
vt 0.949400 0.427100
vt 0.923200 0.460800
vt 0.973400 0.396400
vt 0.803800 0.593800
vt 0.780300 0.621100
vt 0.822800 0.572300
vt 0.850000 0.543500
vt 0.878500 0.512800
vt 0.901100 0.487500
vt 0.438900 0.893600
vt 0.431900 0.828200
vt 0.502900 0.829900
vt 0.506500 0.891100
vt 0.398400 0.777100
vt 0.444400 0.731600
vt 0.483800 0.780300
vt 0.341900 0.783500
vt 0.346300 0.721900
vt 0.399200 0.714000
vt 0.308300 0.813700
vt 0.259300 0.769300
vt 0.296100 0.742500
vt 0.308300 0.875400
vt 0.234300 0.876300
vt 0.236000 0.813800
vt 0.344200 0.928600
vt 0.295700 0.968600
vt 0.252900 0.924400
vt 0.394300 0.920700
vt 0.390200 0.987300
vt 0.343100 0.988200
vt 0.485700 0.935800
vt 0.440500 0.969900
vt 0.225600 0.453200
vt 0.214400 0.473300
vt 0.175600 0.449000
vt 0.188900 0.430300
vt 0.560800 0.852400
vt 0.539800 0.861500
vt 0.525400 0.823900
vt 0.546400 0.815000
vt 0.533200 0.779700
vt 0.512200 0.788800
vt 0.499600 0.756200
vt 0.520800 0.748200
vt 0.506900 0.714000
vt 0.486100 0.723900
vt 0.467700 0.683400
vt 0.488000 0.673600
vt 0.443200 0.603400
vt 0.469600 0.640600
vt 0.450600 0.653000
vt 0.424200 0.616000
vt 0.393400 0.553300
vt 0.418500 0.575800
vt 0.401500 0.591000
vt 0.378200 0.570400
vt 0.328000 0.510100
vt 0.361200 0.530100
vt 0.348000 0.548800
vt 0.316600 0.529900
vt 0.297400 0.493200
vt 0.286700 0.513500
vt 0.246800 0.491700
vt 0.258400 0.472000
vt 0.039100 0.192100
vt 0.053600 0.180400
vt 0.147100 0.429000
vt 0.160400 0.410400
s 1
usemtl default
f 1/1/1 2/2/2 3/3/3
f 3/3/3 4/4/4 1/1/1
f 2/2/2 5/5/5 6/6/6
f 6/6/6 3/3/3 2/2/2
f 5/5/5 7/7/7 8/8/8
f 8/8/8 6/6/6 5/5/5
f 7/7/7 9/9/9 10/10/10
f 10/10/10 8/8/8 7/7/7
f 9/9/9 11/11/11 12/12/12
f 12/12/12 10/10/10 9/9/9
f 13/13/13 14/14/14 12/12/12
f 12/12/12 11/11/11 13/13/13
f 15/15/15 16/16/16 17/17/17
f 17/17/17 18/18/18 15/15/15
f 16/16/16 19/19/19 20/20/20
f 20/20/20 17/17/17 16/16/16
f 4/4/4 3/3/3 21/21/21
f 21/21/21 22/22/22 4/4/4
f 3/3/3 6/6/6 23/23/23
f 23/23/23 21/21/21 3/3/3
f 6/6/6 8/8/8 24/24/24
f 24/24/24 23/23/23 6/6/6
f 8/8/8 10/10/10 25/25/25
f 25/25/25 24/24/24 8/8/8
f 10/10/10 12/12/12 26/26/26
f 26/26/26 25/25/25 10/10/10
f 14/14/14 27/27/27 26/26/26
f 26/26/26 12/12/12 14/14/14
f 18/18/18 17/17/17 28/28/28
f 28/28/28 29/29/29 18/18/18
f 17/17/17 20/20/20 30/30/30
f 30/30/30 28/28/28 17/17/17
f 31/31/31 32/32/32 33/33/33
f 33/33/33 34/34/34 31/31/31
f 34/34/34 33/33/33 35/35/35
f 35/35/35 36/36/36 34/34/34
f 36/36/36 35/35/35 37/37/37
f 37/37/37 38/38/38 36/36/36
f 38/38/38 37/37/37 39/39/39
f 39/39/39 40/40/40 38/38/38
f 40/40/40 39/39/39 41/41/41
f 41/41/41 42/42/42 40/40/40
f 41/41/41 43/43/43 44/44/44
f 44/44/44 42/42/42 41/41/41
f 45/45/45 46/46/46 47/47/47
f 47/47/47 48/48/48 45/45/45
f 48/48/48 47/47/47 49/49/49
f 49/49/49 50/50/50 48/48/48
f 32/32/32 51/51/51 52/52/52
f 52/52/52 33/33/33 32/32/32
f 33/33/33 52/52/52 53/53/53
f 53/53/53 35/35/35 33/33/33
f 35/35/35 53/53/53 54/54/54
f 54/54/54 37/37/37 35/35/35
f 37/37/37 54/54/54 55/55/55
f 55/55/55 39/39/39 37/37/37
f 39/39/39 55/55/55 56/56/56
f 56/56/56 41/41/41 39/39/39
f 56/56/56 57/57/57 43/43/43
f 43/43/43 41/41/41 56/56/56
f 46/46/46 58/58/58 59/59/59
f 59/59/59 47/47/47 46/46/46
f 47/47/47 59/59/59 60/60/60
f 60/60/60 49/49/49 47/47/47
f 15/15/15 61/61/61 62/62/62
f 62/62/62 16/16/16 15/15/15
f 16/16/16 62/62/62 63/63/63
f 63/63/63 19/19/19 16/16/16
f 1/1/64 31/31/64 34/34/65
f 34/34/65 2/2/65 1/1/64
f 2/2/65 34/34/65 36/36/66
f 36/36/66 5/5/66 2/2/65
f 5/5/66 36/36/66 38/38/67
f 38/38/67 7/7/67 5/5/66
f 7/7/67 38/38/67 40/40/68
f 40/40/68 9/9/68 7/7/67
f 9/9/68 40/40/68 42/42/69
f 42/42/69 11/11/69 9/9/68
f 42/42/69 44/44/70 13/13/70
f 13/13/70 11/11/69 42/42/69
f 61/61/61 45/45/45 48/48/48
f 48/48/48 62/62/62 61/61/61
f 62/62/62 48/48/48 50/50/50
f 50/50/50 63/63/63 62/62/62
f 19/64/71 63/65/72 64/66/73
f 64/66/73 20/67/74 19/64/71
f 20/67/74 64/66/73 65/68/75
f 65/68/75 30/69/76 20/67/74
f 64/66/73 63/65/72 50/70/77
f 50/70/77 49/71/78 64/66/73
f 64/66/73 49/71/78 60/72/79
f 60/72/79 65/68/75 64/66/73
f 30/73/30 65/74/80 66/75/81
f 66/75/81 28/76/28 30/73/30
f 28/76/28 66/75/81 67/77/82
f 67/77/82 29/78/29 28/76/28
f 27/79/83 68/80/84 69/81/85
f 65/74/80 60/60/60 59/59/59
f 59/59/59 66/75/81 65/74/80
f 66/75/81 59/59/59 58/58/58
f 58/58/58 67/77/82 66/75/81
f 70/82/86 71/83/87 57/84/88
f 57/84/88 27/79/83 70/82/86
f 26/85/89 56/86/89 55/87/90
f 55/87/90 25/88/90 26/85/89
f 25/88/90 55/87/90 54/89/91
f 54/89/91 24/90/91 25/88/90
f 24/90/91 54/89/91 53/91/92
f 53/91/92 23/92/92 24/90/91
f 23/92/92 53/91/92 52/93/93
f 52/93/93 21/94/93 23/92/92
f 21/94/93 52/93/93 51/95/94
f 51/95/94 22/96/94 21/94/93
f 72/97/95 73/98/96 14/99/97
f 14/99/97 13/100/98 72/97/95
f 74/101/99 75/102/100 27/79/83
f 27/79/83 14/99/97 74/101/99
f 76/103/101 77/104/102 44/105/103
f 44/105/103 43/106/104 76/103/101
f 78/107/105 79/108/106 43/106/104
f 43/106/104 57/84/88 78/107/105
f 13/100/98 80/109/107 81/110/108
f 82/111/109 83/112/110 13/100/98
f 13/100/98 44/105/103 82/111/109
f 56/86/89 26/85/89 27/113/111
f 27/113/111 57/114/111 56/86/89
f 84/115/112 85/116/113 86/117/114
f 86/117/114 87/118/115 84/115/112
f 1/1/1 4/4/4 84/119/116
f 84/119/116 87/120/117 1/1/1
f 4/4/4 22/22/22 88/121/118
f 88/121/118 84/119/116 4/4/4
f 22/96/94 51/95/94 89/122/119
f 89/122/119 88/123/119 22/96/94
f 51/51/51 32/32/32 85/124/120
f 85/124/120 89/125/121 51/51/51
f 32/32/32 31/31/31 86/126/122
f 86/126/122 85/124/120 32/32/32
f 31/31/64 1/1/64 87/120/115
f 87/120/115 86/126/114 31/31/64
f 15/15/15 18/18/18 90/127/123
f 90/127/123 91/128/124 15/15/15
f 18/18/18 29/29/29 92/129/125
f 92/129/125 90/127/123 18/18/18
f 29/78/29 67/77/82 93/130/126
f 93/130/126 92/131/125 29/78/29
f 67/77/82 58/58/58 94/132/127
f 94/132/127 93/130/126 67/77/82
f 58/58/58 46/46/46 95/133/128
f 95/133/128 94/132/127 58/58/58
f 46/46/46 45/45/45 96/134/129
f 96/134/129 95/133/128 46/46/46
f 45/45/45 61/61/61 97/135/130
f 97/135/130 96/134/129 45/45/45
f 61/61/61 15/15/15 91/128/124
f 91/128/124 97/135/130 61/61/61
f 91/136/131 90/137/132 98/138/133
f 98/138/133 99/139/134 91/136/131
f 90/137/132 92/140/135 100/141/136
f 100/141/136 101/142/137 90/137/132
f 92/140/135 93/143/138 102/144/139
f 102/144/139 103/145/140 92/140/135
f 93/143/138 94/146/141 104/147/142
f 104/147/142 105/148/143 93/143/138
f 94/146/141 95/149/144 106/150/145
f 106/150/145 107/151/146 94/146/141
f 95/149/144 96/152/147 108/153/148
f 108/153/148 109/154/149 95/149/144
f 96/152/147 97/155/150 110/156/151
f 110/156/151 111/157/152 96/152/147
f 97/155/150 91/136/131 112/158/153
f 112/158/153 113/159/154 97/155/150
f 98/160/155 73/161/156 72/162/157
f 72/162/157 99/163/158 98/160/155
f 112/164/159 81/165/160 80/166/161
f 80/166/161 113/167/162 112/164/159
f 110/168/163 83/169/164 82/170/165
f 82/170/165 111/171/166 110/168/163
f 108/172/167 77/173/168 76/174/169
f 76/174/169 109/175/170 108/172/167
f 107/176/171 106/177/172 79/178/173
f 79/178/173 78/179/174 107/176/171
f 105/180/175 104/181/176 71/182/177
f 71/182/177 70/183/178 105/180/175
f 103/184/179 102/185/180 69/186/181
f 69/186/181 68/187/182 103/184/179
f 100/188/183 75/189/184 74/190/185
f 74/190/185 101/191/186 100/188/183
f 84/115/112 88/192/187 89/193/188
f 89/193/188 85/116/113 84/115/112
f 72/97/95 13/100/98 81/110/108
f 112/158/153 91/136/131 99/139/134
f 72/162/157 81/194/160 112/195/159
f 112/195/159 99/163/158 72/162/157
f 83/112/110 80/109/107 13/100/98
f 110/156/151 97/155/150 113/159/154
f 80/166/161 83/169/164 110/168/163
f 110/168/163 113/167/162 80/166/161
f 77/104/102 82/111/109 44/105/103
f 108/153/148 96/152/147 111/157/152
f 82/170/165 77/173/168 108/172/167
f 108/172/167 111/171/166 82/170/165
f 76/103/101 43/106/104 79/108/106
f 106/150/145 95/149/144 109/154/149
f 76/174/169 79/178/173 106/177/172
f 106/177/172 109/175/170 76/174/169
f 71/83/87 78/107/105 57/84/88
f 104/147/142 94/146/141 107/151/146
f 78/179/174 71/182/177 104/181/176
f 104/181/176 107/176/171 78/179/174
f 69/81/85 70/82/86 27/79/83
f 102/144/139 93/143/138 105/148/143
f 70/183/178 69/186/181 102/185/180
f 102/185/180 105/180/175 70/183/178
f 75/102/100 68/80/84 27/79/83
f 100/141/136 92/140/135 103/145/140
f 68/187/182 75/189/184 100/188/183
f 100/188/183 103/184/179 68/187/182
f 73/98/96 74/101/99 14/99/97
f 98/138/133 90/137/132 101/142/137
f 98/160/155 101/191/186 74/190/185
f 74/190/185 73/161/156 98/160/155
